PathFileType	4	(X/Y/Z)	c:/Users/goper/Files/vsCode/490R/osim_files/A03/A03_Fast_02.trc
DataRate	CameraRate	NumFrames	NumMarkers	Units                	OrigDataRate	OrigDataStartFrame	OrigNumFrames
250.00	250.00	5	36	mm	250.0	1528	3055
                Frame#	Time	LPSIS			LASIS			LTH1			LTH2			LTH3			LTH4			LLFE			LMFE			LSH1			LSH2			LSH3			LSH4			LLMAL			LMMAL			LCAL			LMTP5			LTOE			LMTP1			RPSIS			RASIS			RTH1			RTH2			RTH3			RTH4			RLFE			RMFE			RSH1			RSH2			RSH3			RSH4			RLMAL			RMMAL			RCAL			RMTP1			RTOE			RMTP5		
		X1	Y1	Z1	X2	Y2	Z2	X3	Y3	Z3	X4	Y4	Z4	X5	Y5	Z5	X6	Y6	Z6	X7	Y7	Z7	X8	Y8	Z8	X9	Y9	Z9	X10	Y10	Z10	X11	Y11	Z11	X12	Y12	Z12	X13	Y13	Z13	X14	Y14	Z14	X15	Y15	Z15	X16	Y16	Z16	X17	Y17	Z17	X18	Y18	Z18	X19	Y19	Z19	X20	Y20	Z20	X21	Y21	Z21	X22	Y22	Z22	X23	Y23	Z23	X24	Y24	Z24	X25	Y25	Z25	X26	Y26	Z26	X27	Y27	Z27	X28	Y28	Z28	X29	Y29	Z29	X30	Y30	Z30	X31	Y31	Z31	X32	Y32	Z32	X33	Y33	Z33	X34	Y34	Z34	X35	Y35	Z35	X36	Y36	Z36

1528	6.10800	-368.75842	1042.49927	210.49815	-589.08331	963.31714	361.85086	-650.57019	624.35822	434.00113	-666.24084	584.18665	437.09894	-709.57562	637.89508	419.26837	-715.49884	594.72467	422.97763	-668.12329	527.95795	424.38739	-704.32385	516.78094	272.22159	-579.67822	501.08173	408.88263	-546.14923	467.26886	400.41440	-617.56610	449.98959	405.50064	-577.64642	426.83923	393.71002	-310.80704	255.35185	320.54822	-334.88861	254.59358	224.12863	-259.85782	298.91571	261.66513	-363.97638	102.92037	329.58304	-413.52795	105.32304	267.30545	-385.21402	116.44716	218.40355	-379.60324	1051.39880	127.34937	-636.52740	971.46954	68.29066	-632.97473	605.25922	25.17440	-644.81885	561.77991	36.36002	-690.60876	616.81995	40.78830	-695.05133	573.62396	48.11293	-668.41608	533.56024	54.52806	-683.49475	545.52081	176.96548	-614.39142	467.92023	45.95281	-610.08514	426.57269	36.09306	-675.42047	454.34006	52.36669	-660.74854	409.37219	42.72127	-566.77081	123.36819	94.73818	-593.47919	106.10285	180.59497	-503.21490	84.62727	150.00937	-716.36920	46.34382	190.91383	-746.43433	70.35579	142.17317	-712.75543	44.77770	71.21111
1529	6.11200	-373.49673	1044.27002	210.61357	-594.49976	965.83258	361.37445	-660.18292	627.70789	433.11798	-676.30414	587.66547	435.94052	-718.80237	641.89105	417.65100	-725.19031	598.74780	421.21841	-678.35553	530.95422	423.37930	-713.47662	521.42950	270.83994	-590.37286	502.21664	408.36746	-557.62524	467.65402	399.90598	-629.41595	451.80457	404.36191	-589.87372	428.04269	392.72876	-326.48093	251.05421	320.37201	-349.83853	251.35249	223.92198	-273.71606	294.16165	262.96298	-383.02518	99.74700	328.02319	-432.52487	104.00807	265.73315	-403.13556	114.48220	216.79021	-384.24390	1053.14685	127.43228	-640.74719	972.56500	67.91185	-633.89679	605.71783	25.47588	-645.60919	562.01355	36.69067	-691.84723	616.73108	41.13586	-695.92151	573.50806	48.41875	-668.91388	533.64935	54.82659	-683.92120	545.44006	177.32201	-614.73303	468.07364	46.23358	-610.36603	426.77130	36.35079	-675.77374	454.40482	52.64958	-661.06219	409.49652	43.03118	-568.65668	123.20619	96.57600	-594.53149	105.59012	180.60123	-503.15555	84.61148	150.06400	-716.52795	46.30762	190.90463	-746.36011	70.40871	142.17972	-712.71106	44.84122	71.22495
1530	6.11600	-378.20358	1046.01672	210.72581	-600.01172	968.42847	360.89844	-669.33972	631.17645	432.12979	-686.11383	591.22516	434.79468	-727.84149	645.86884	415.95993	-734.70770	602.82916	419.44263	-688.38501	534.02295	422.30618	-722.59387	526.08459	269.51517	-601.74591	502.98770	407.52750	-568.93365	468.06299	399.34875	-641.17426	453.76443	403.23062	-601.89362	429.28848	391.73590	-342.18451	246.67662	320.23505	-364.92566	247.98935	223.67844	-288.50470	288.55289	261.94812	-402.36389	96.59949	326.56870	-451.29117	102.34136	263.98804	-421.25146	112.42446	215.29460	-388.90317	1054.89368	127.52756	-645.04163	973.59869	67.47379	-635.02649	605.97906	25.86551	-646.37061	562.23022	37.05738	-692.88898	616.65552	41.39491	-696.64868	573.41425	48.68807	-669.45380	533.74609	55.15339	-684.45953	545.40137	177.70842	-615.05225	468.27277	46.50603	-610.61395	426.96884	36.63899	-676.03253	454.46149	52.89717	-661.49365	409.94366	43.59016	-566.30780	124.56676	93.74627	-595.24866	105.26534	180.61594	-503.09348	84.64915	150.08359	-716.48138	46.31338	190.88060	-746.29626	70.48173	142.17061	-712.65607	44.86271	71.21140
1531	6.12000	-382.94458	1047.72791	210.86662	-605.50726	970.98798	360.42944	-678.75446	634.44495	431.28043	-695.80688	594.80347	433.63269	-736.72552	649.87280	414.30438	-744.03632	606.87164	417.63763	-698.14691	537.12665	421.26947	-731.57233	530.53351	268.27985	-612.17401	504.09961	406.90167	-580.11060	468.51395	398.69333	-652.74249	455.78571	402.08508	-613.87311	430.50504	390.78079	-357.74442	242.26552	320.19870	-380.13150	244.58055	223.47978	-303.08594	283.11823	262.28345	-421.76270	93.54939	325.31955	-470.18246	100.76295	262.43906	-439.61853	110.29722	213.97751	-393.56021	1056.57947	127.63490	-649.34381	974.65314	67.02729	-636.04382	606.30328	26.22833	-647.08685	562.45782	37.37762	-694.10968	616.57288	41.70587	-697.45825	573.27856	49.01011	-669.92810	533.83295	55.49907	-684.27173	545.14966	178.09227	-615.32141	468.48709	46.79815	-610.83716	427.19687	36.90625	-676.28619	454.55118	53.17442	-661.67310	410.07034	43.84336	-566.63824	124.14429	94.63734	-595.66589	105.10790	180.63899	-503.30121	84.55605	150.31129	-716.44269	46.39184	190.87560	-746.22339	70.58769	142.13373	-712.58136	44.95164	71.22965
1532	6.12400	-387.60938	1049.41602	211.02805	-610.96759	973.46893	359.92886	-687.83661	637.85748	430.31616	-705.26282	598.39740	432.45654	-745.47321	653.89960	412.65833	-753.18732	610.93274	415.87463	-707.69391	540.25647	420.22696	-740.43640	535.00006	267.04691	-622.48700	505.22632	406.18719	-591.20074	468.91644	398.06482	-664.22925	457.83682	400.96783	-625.66840	431.78030	389.86118	-374.39771	237.10458	319.18512	-395.31873	240.51875	223.11113	-317.89221	277.53305	262.54105	-441.36127	90.58566	324.20169	-489.19131	99.17221	261.05765	-458.21460	108.11196	212.83586	-398.28070	1058.24377	127.74984	-653.57501	975.57416	66.61406	-636.98285	606.66479	26.58927	-647.87360	562.65179	37.73439	-695.03668	616.43768	41.99474	-698.16040	573.19641	49.25189	-670.41785	533.90851	55.84457	-684.79187	545.08289	178.44171	-615.62701	468.72162	47.16448	-611.04901	427.44348	37.22209	-676.54053	454.66003	53.45144	-661.59943	409.88034	43.77337	-566.62122	124.21588	94.83219	-595.81836	105.09725	180.67023	-503.03876	84.61788	150.27232	-716.39954	46.43797	190.85777	-746.31140	70.66039	142.33127	-712.51526	45.02276	71.24657
